<?xml version="1.0" encoding="UTF-8"?>
<svg id="a" data-name="Layer 1" xmlns="http://www.w3.org/2000/svg" viewBox="0 0 511.06 194.56">
  <defs>
    <style>
      .b {
        fill: #4a6cf7;
        stroke-width: 0px;
      }
    </style>
  </defs>
  <path class="b" d="m41.71,140.85c-3.32-1.43-6.83-2.44-10.3-3.49-4.41-1.33-8.95-2.26-13.27-3.82-4.82-1.74-6.66-4.57-6.44-8.66.21-4.09,2.6-7.41,7.24-8.42,3.73-.81,7.84-1.24,11.53-.52,4.76.93,9.26,3.18,14.22,4.98,1.23-1.66,2.84-3.86,4.56-6.19-11.09-7.94-22.9-10.31-35.62-5.56-6.62,2.47-10.79,7.39-11.36,14.73-.61,7.96,3.04,13.58,10.2,16.68,4.12,1.78,8.55,2.85,12.84,4.23,4.03,1.3,8.28,2.15,12.06,3.99,5.21,2.53,5.85,9.41,1.35,13.1-1.84,1.51-4.28,2.59-6.61,3.13-6.84,1.56-13.43.23-19.61-2.87-2.81-1.41-5.38-3.28-8.23-5.05-1.4,2.22-2.8,4.45-4.26,6.77,8.12,7.9,20.8,11.77,31.97,10,5.09-.81,9.71-2.53,13.7-5.96,6.99-6.01,8.71-21.62-3.96-27.08Z"/>
  <path class="b" d="m137.64,122.18c-7.93-2.02-15.31-.67-21.8,4.56-.64.52-1.3,1-2.47,1.81v-6.37c-2.04,0-3.98.13-5.89-.03-2.19-.19-2.86.56-2.85,2.8.1,15.27.05,30.55.06,45.82,0,.77.09,1.55.15,2.13h8.73c0-1,0-1.96,0-2.92.03-8.17-.12-16.34.14-24.5.32-10.25,9.31-17.31,19.35-15.5,6.09,1.1,9.9,6.12,9.98,13.53.1,8.88.03,17.76-.35,26.64v3.29h9.01c.12-.49.27-.65.27-.8,0-10.65.32-21.32-.15-31.96-.43-9.64-5.87-16.38-14.18-18.49Z"/>
  <path class="b" d="m94.52,122.14c-1.77-.11-2.65.49-3.36,2.18-4.82,11.53-9.77,23-14.69,34.49-.33.78-.72,1.53-1.27,2.69-.62-1.35-1.08-2.27-1.48-3.22-4.8-11.25-9.58-22.51-14.43-33.74-.38-.88-1.15-2.17-1.84-2.23-2.79-.26-5.61-.11-8.8-.11.57,1.37.95,2.34,1.37,3.3,6.52,14.95,13.01,29.91,19.61,44.82.76,1.71.71,3.06-.04,4.73-2.27,5-4.36,10.08-6.5,15.14-.57,1.34-1.09,2.69-1.73,4.29,2.72,0,5.03-.13,7.32.04,1.82.14,2.65-.56,3.34-2.19,8.98-21.22,18.04-42.41,27.07-63.61.86-2.01,1.66-4.05,2.68-6.56-2.71,0-4.99.11-7.25-.03Z"/>
  <path class="b" d="m189.49,122.87c-8.83-2.52-17.4-1.65-25.44,2.96-1.56.89-2.94,2.09-4.48,3.21,1.72,2.44,3.18,4.5,4.7,6.65,5.43-4.39,11.3-6.42,18.02-5.68,7.36.81,10.82,4.64,10.89,12.48-1.97-.14-3.73-.38-5.48-.36-5.66.05-11.41-.4-16.96.44-8.08,1.21-13.03,7.22-13.28,14.7-.28,8.28,3.83,14.47,11.56,16.28,3.53.83,7.39.76,11.04.41,5.07-.48,9.18-3.35,13.14-7.07.11,2.45.2,4.44.3,6.55h8.36c.11-.38.25-.63.25-.87,0-11.01.2-22.02-.06-33.03-.19-8.24-5.02-14.5-12.57-16.66Zm-19.09,41.7c-2.86-1.35-4.3-3.67-4.38-6.75-.08-3.11,1.22-5.75,4.19-6.78,2.8-.97,5.83-1.67,8.78-1.73,4.67-.1,9.35.43,14.19.71-.23,11.9-12.46,19.42-22.78,14.54Z"/>
  <rect class="b" x="430.56" y="106.79" width="9.6" height="9.6" rx="4.24" ry="4.24"/>
  <path class="b" d="m219.58,128.63c-.1-2.22-.19-4.27-.28-6.38h-8.38v71.97h8.53v-27.55c12.95,12.09,29.79,7.74,36.77-.71,8.21-9.95,8.04-27.05-.55-36.88-7.56-8.64-23.86-11.88-36.08-.45Zm17.63,37.08c-10.42-.03-17.56-7.3-17.56-17.89,0-10.6,7.36-18.14,17.74-18.17,10.09-.02,17.1,7.5,17.09,18.34-.01,10.7-6.87,17.74-17.26,17.72Z"/>
  <path class="b" d="m479.13,121.8c-8.83-2.52-17.4-1.65-25.44,2.96-1.56.89-2.94,2.09-4.48,3.21,1.72,2.44,3.18,4.5,4.7,6.65,5.43-4.39,11.3-6.42,18.02-5.68,7.36.81,10.82,4.64,10.89,12.48-1.97-.14-3.73-.38-5.48-.36-5.66.05-11.41-.4-16.96.44-8.08,1.21-13.03,7.22-13.28,14.7-.28,8.28,3.83,14.47,11.56,16.28,3.53.83,7.39.76,11.04.41,5.07-.48,9.18-3.35,13.14-7.07.11,2.45.2,4.44.3,6.55h8.36c.11-.38.25-.63.25-.87,0-11.01.2-22.02-.06-33.03-.19-8.24-5.02-14.5-12.57-16.66Zm-19.09,41.69c-2.86-1.35-4.3-3.67-4.38-6.75-.08-3.11,1.22-5.75,4.19-6.78,2.8-.97,5.83-1.67,8.78-1.73,4.67-.1,9.35.43,14.19.71-.23,11.9-12.46,19.42-22.78,14.54Z"/>
  <rect class="b" x="502.53" y="106.79" width="8.53" height="65.57"/>
  <rect class="b" x="431.09" y="123.32" width="8.53" height="49.58"/>
  <path class="b" d="m306.81,140.85c-3.32-1.43-6.83-2.44-10.3-3.49-4.41-1.33-8.95-2.26-13.27-3.82-4.82-1.74-6.66-4.57-6.44-8.66.21-4.09,2.6-7.41,7.24-8.42,3.73-.81,7.84-1.24,11.53-.52,4.76.93,9.26,3.18,14.22,4.98,1.23-1.66,2.84-3.86,4.56-6.19-11.09-7.94-22.9-10.31-35.62-5.56-6.62,2.47-10.79,7.39-11.36,14.73-.61,7.96,3.04,13.58,10.2,16.68,4.12,1.78,8.55,2.85,12.84,4.23,4.03,1.3,8.28,2.15,12.06,3.99,5.21,2.53,5.85,9.41,1.35,13.1-1.84,1.51-4.28,2.59-6.61,3.13-6.84,1.56-13.43.23-19.62-2.87-2.81-1.41-5.38-3.28-8.23-5.05-1.4,2.22-2.8,4.45-4.26,6.77,8.12,7.9,20.8,11.77,31.97,10,5.09-.81,9.71-2.53,13.7-5.96,6.99-6.01,8.71-21.62-3.96-27.08Z"/>
  <path class="b" d="m389.22,134.26c1.59-1.42,3.48-2.45,5.5-3.14,8.11-2.76,15.57-1.65,21.8,4.99,1.98-1.76,3.89-3.45,5.92-5.25-4.45-5.31-10.09-8.08-16.72-9.12-10.66-1.67-21.58,3.08-26.99,11.8-2.56,4.12-3.85,9.16-3.91,14.22.05,5.05,1.35,10.08,3.91,14.21,5.41,8.72,16.34,13.47,26.99,11.8,6.63-1.04,12.28-3.8,16.72-9.12-2.03-1.8-3.94-3.49-5.92-5.25-6.24,6.64-13.69,7.76-21.8,4.99-2.66-.9-5.3-2.49-7.02-4.74-1.8-2.36-3.06-5.13-3.65-8.05-1.18-5.85.33-12.64,4.66-16.9.17-.16.33-.32.51-.47Z"/>
  <path class="b" d="m349.95,121.81c-6.88-1.33-14.43.07-20.2,4.13-1.33.94-2.56,2.01-3.65,3.23-8.76,9.82-8.94,26.91-.57,36.85,4.04,4.8,11.32,8.25,19.28,8.15,7.96.1,15.24-3.35,19.28-8.15,8.37-9.95,8.2-27.03-.57-36.85-3.48-3.9-8.49-6.36-13.59-7.35Zm6.53,39.27c-3.06,3.02-7.38,4.55-11.66,4.56-.91,0-1.81-.06-2.7-.2-4.6-.69-8.76-3.23-11.22-7.2-1.9-3.06-2.68-6.68-2.69-10.25,0-4.66,1.35-9.41,4.49-12.94,3.35-3.78,8.47-5.72,13.49-5.31.95.08,1.89.24,2.81.48,5.11,1.35,9.18,5.12,11.07,10.03.95,2.46,1.36,5.11,1.36,7.75,0,4.79-1.48,9.67-4.95,13.09Z"/>
  <path class="b" d="m266.31,84.53c.27.02.54.05.82.07.27.02.54.04.82.06.27.02.55.03.82.05.27.01.55.03.82.04.27.01.55.02.82.03s.55.02.82.02c.27,0,.55,0,.82.01s.55,0,.82,0c.27,0,.55,0,.82,0,.27,0,.55,0,.82-.02.27,0,.55-.02.82-.03.27-.01.55-.02.82-.04.27-.01.55-.03.82-.05.27-.02.55-.04.82-.06.27-.02.55-.04.82-.07.28-.02.55-.05.82-.08.27-.03.55-.06.82-.09.28-.03.55-.06.82-.1.28-.03.55-.07.82-.11.28-.04.55-.08.82-.12.28-.04.55-.08.82-.13.28-.04.55-.09.82-.14.28-.05.55-.1.82-.15.28-.05.55-.11.82-.16.28-.06.55-.11.82-.17.28-.06.55-.12.82-.18.28-.06.55-.13.82-.19.28-.07.55-.14.82-.21.2-.05.41-.11.61-.16,11.69-3.15,22.32-10.1,29.7-19.64,7.03-8.91,11.31-20.04,12.61-31.18.48-4.3.61-8.59.03-12.89-.05-.34-.29-.62-.61-.73-.3-.1-.63-.03-.87.18-3.15,2.79-6.21,5.36-9.27,7.72-8.28,6.26-16.98,12-27.11,13.58-4.55.66-9,.03-13.23-1.63-6.85-2.69-13.04-6.97-19.04-11.62-4.28-3.35-8.38-6.92-12.38-10.61-8.33-7.86-18.81-14.03-30.56-15.41-12.83-1.63-26.6,3.06-34.94,13.1-5.09,5.94-8.17,13.77-8.02,21.59.21,11.91,7.57,22.75,17.37,29.19,0,0,.27.02.53.05.27.02.53.05.53.05.73-.26,2.22-.82,2.94-1.09,3.75-1.46,7.93-3.21,11.57-4.75,3-1.28,7.22-3.14,9.92-4.13,1.81-.66,3.36-1.15,4.59-1.3.5-.07,1.09-.09,1.55.04.46.1.88.45.91.94.04,1.25-1.03,2.34-1.94,3.16-.18.15-.36.29-.54.43-.19.14-.38.27-.58.4-.2.13-.4.25-.6.37-.21.12-.42.23-.63.34-.21.11-.43.21-.65.31-.22.1-.45.19-.67.28-.23.09-.46.17-.69.25-.23.08-.47.15-.71.22-.24.07-.48.13-.72.19-.24.06-.49.11-.73.16-.24.05-.49.09-.74.13s-.49.07-.74.1c-.25.03-.5.05-.75.06-.25.02-.5.03-.75.03-.25,0-.5,0-.74,0-.25,0-.49-.02-.74-.03-.24-.02-.49-.04-.73-.07-.24-.03-.48-.06-.72-.1-.24-.04-.47-.08-.71-.14-.23-.05-.46-.11-.69-.17-.3-.08-.59-.17-.87-.3-.2-.09-.4-.21-.59-.31-.2-.1-.62-.36-.62-.26-.02.04.1.12.17.16.13.07.27.15.41.2.14.06.27.12.41.18.13.07.27.14.4.22.07.04.13.08.19.12.05.03.1.06.14.1.05.04.1.08.15.12.2.16.41.32.62.48l.03.02c.22.17.43.33.65.49.22.16.43.33.65.49.22.16.44.33.65.49.22.16.44.32.66.49.22.16.44.32.66.48.22.16.44.32.67.48.22.16.45.32.67.48.22.16.45.32.67.47.23.16.45.31.68.47.23.16.45.31.68.47.23.16.45.31.68.46.23.15.46.31.69.46.23.15.46.3.69.46.23.15.46.3.69.45.23.15.46.3.7.45.23.15.47.3.7.45.23.15.47.29.7.44.23.15.47.29.71.44.24.15.47.29.71.43.24.14.47.29.71.43.24.14.48.28.71.42.24.14.48.28.72.42.24.14.48.28.72.42.24.14.48.28.72.41s.48.27.73.41c.24.13.49.27.73.4.24.13.49.27.73.4.24.13.49.26.73.39.25.13.49.26.74.39.25.13.49.26.74.38.25.13.49.25.74.38.25.12.5.25.74.37.25.12.5.25.75.37s.5.24.75.36c.25.12.5.24.75.36.25.12.5.23.75.35.25.12.5.23.76.34s.51.23.76.34c.25.11.51.22.76.33.25.11.51.22.76.33.25.11.51.22.77.32.26.11.51.21.77.32.26.1.51.21.77.31s.51.2.77.3c.26.1.52.2.77.3.26.1.52.19.78.29.26.1.52.19.78.28s.52.19.78.28c.26.09.52.18.78.27.26.09.52.18.78.26.26.09.52.17.79.26.26.08.52.17.79.25s.53.16.79.24c.26.08.53.16.79.24.26.08.53.15.79.23.26.07.53.15.79.22.26.07.53.14.8.21.27.07.53.14.8.21.27.07.53.13.8.2.27.07.53.13.8.19.27.06.53.12.8.18.27.06.53.12.8.18.27.06.54.11.8.17.27.05.54.11.81.16.27.05.54.1.81.15.27.05.54.1.81.14.27.05.54.09.81.14.27.04.54.09.81.13.27.04.54.08.81.12.27.04.54.08.81.11.27.04.54.07.81.1s.54.06.81.09c.27.03.54.06.82.08.27.03.54.05.82.08Z"/>
</svg>