<?xml version="1.0" encoding="UTF-8"?>
<svg id="a" data-name="Layer 1" xmlns="http://www.w3.org/2000/svg" viewBox="0 0 234.67 127.24">
  <defs>
    <style>
      .b {
        fill: #4a6cf7;
        stroke-width: 0px;
      }
    </style>
  </defs>
  <path class="b" d="m233.18,27.18c-.45-.15-.95-.04-1.3.27-4.72,4.18-9.31,8.04-13.91,11.58-12.42,9.4-25.48,18.01-40.67,20.38-6.82.99-13.51.05-19.84-2.45-10.28-4.04-19.56-10.46-28.57-17.44-6.43-5.02-12.58-10.38-18.57-15.92C97.82,11.8,82.09,2.56,64.46.48,45.21-1.97,24.55,5.06,12.04,20.13,4.4,29.04-.23,40.78,0,52.52c.32,17.88,11.36,34.14,26.07,43.79,0,0,.4.04.8.07.4.04.8.07.8.07,1.09-.39,3.33-1.23,4.41-1.64,5.62-2.18,11.9-4.81,17.36-7.13,4.5-1.93,10.84-4.71,14.89-6.19,2.72-.99,5.04-1.72,6.88-1.94.75-.1,1.63-.14,2.33.06.7.14,1.31.68,1.37,1.42.05,1.88-1.55,3.51-2.91,4.74-.27.22-.54.44-.82.64-.28.21-.57.41-.86.6-.3.19-.6.38-.91.56-.31.18-.63.35-.94.51-.32.16-.65.32-.98.47-.33.15-.67.29-1.01.42-.34.13-.69.26-1.04.38-.35.12-.7.23-1.06.33-.36.1-.72.2-1.08.29-.36.09-.73.17-1.1.24-.37.07-.74.14-1.11.19-.37.06-.74.1-1.11.15-.37.04-.74.07-1.12.1-.37.02-.75.04-1.12.05-.37,0-.74,0-1.11,0-.37,0-.74-.03-1.11-.05-.37-.03-.73-.06-1.09-.1-.36-.04-.72-.09-1.08-.15-.35-.06-.71-.13-1.06-.2-.35-.08-.69-.16-1.04-.25-.44-.12-.88-.25-1.3-.44-.3-.14-.59-.31-.89-.46-.3-.15-.93-.54-.93-.4-.02.06.15.19.26.24.2.11.4.22.61.3.21.08.41.17.61.27.2.1.4.21.59.33.1.06.19.12.29.18.07.05.15.09.22.15.07.06.15.12.22.18.3.24.61.48.92.72l.05.04c.32.25.65.49.97.74.32.25.65.49.98.74.33.25.65.49.98.73.33.24.66.49.99.73.33.24.66.48.99.72.33.24.67.48,1,.72.33.24.67.48,1,.72.34.24.67.47,1.01.71.34.24.68.47,1.01.71.34.23.68.47,1.02.7.34.23.68.46,1.02.7.34.23.69.46,1.03.69.34.23.69.46,1.03.68.35.23.69.45,1.04.68.35.23.7.45,1.04.67.35.22.7.45,1.05.67.35.22.7.44,1.05.66.35.22.71.44,1.06.66.35.22.71.43,1.06.65.36.22.71.43,1.07.64.36.21.71.43,1.07.64.36.21.72.42,1.08.63.36.21.72.42,1.08.62.36.21.72.41,1.09.62.36.2.73.41,1.09.61.36.2.73.4,1.09.6.37.2.73.4,1.1.6s.73.39,1.1.59c.37.2.74.39,1.11.58.37.19.74.38,1.11.57.37.19.74.38,1.11.57.37.19.74.37,1.12.56.37.18.75.37,1.12.55.37.18.75.36,1.13.54.38.18.75.36,1.13.53.38.18.75.35,1.13.53.38.17.76.35,1.14.52.38.17.76.34,1.14.51.38.17.76.33,1.14.5.38.17.76.33,1.15.49.38.16.77.32,1.15.48.38.16.77.32,1.15.47.38.16.77.31,1.16.46.39.15.77.3,1.16.45.39.15.77.3,1.16.45.39.15.78.29,1.17.44.39.14.78.29,1.17.43.39.14.78.28,1.17.42.39.14.78.27,1.17.41.39.13.78.27,1.18.4.39.13.79.26,1.18.39.39.13.79.25,1.18.38.39.12.79.24,1.18.36.4.12.79.24,1.19.35.4.12.79.23,1.19.34.4.11.79.22,1.19.33.4.11.8.22,1.19.32.4.11.8.21,1.2.31.4.1.8.2,1.2.3.4.1.8.19,1.2.29.4.09.8.19,1.2.28.4.09.8.18,1.2.26.4.09.8.17,1.21.25.4.08.81.16,1.21.24.4.08.81.15,1.21.23.4.07.81.15,1.21.22.4.07.81.14,1.21.2.4.07.81.13,1.22.19.41.06.81.12,1.22.18.41.06.81.11,1.22.17.41.05.81.1,1.22.15.41.05.81.1,1.22.14.41.04.82.09,1.22.13.41.04.82.08,1.22.11.41.04.82.07,1.23.1.41.03.82.06,1.23.09.41.03.82.05,1.23.07.41.02.82.04,1.23.06.41.02.82.03,1.23.05.41.01.82.02,1.23.03.41,0,.82.01,1.23.02.41,0,.82,0,1.23,0,.41,0,.82,0,1.23-.01.41,0,.82-.01,1.23-.03.41-.01.82-.02,1.23-.04.41-.02.82-.03,1.24-.06.41-.02.82-.04,1.24-.07.41-.03.82-.05,1.24-.09.41-.03.82-.06,1.24-.1.41-.04.82-.07,1.24-.12.41-.04.83-.08,1.24-.13.41-.05.83-.1,1.24-.15.41-.05.83-.11,1.24-.16.41-.06.83-.12,1.24-.18.41-.06.83-.13,1.24-.19.41-.07.83-.14,1.24-.21.41-.07.83-.15,1.24-.23.41-.08.83-.16,1.24-.24.41-.08.83-.17,1.24-.26.41-.09.83-.18,1.24-.28.41-.09.83-.19,1.24-.29.41-.1.82-.2,1.24-.31.31-.08.61-.16.91-.24,17.54-4.72,33.48-15.16,44.56-29.47,10.55-13.38,16.98-30.08,18.92-46.78.72-6.46.92-12.89.05-19.34-.07-.51-.43-.93-.92-1.09h0Z"/>
</svg>