<?xml version="1.0" encoding="UTF-8"?>
<svg id="a" data-name="Layer 1" xmlns="http://www.w3.org/2000/svg" viewBox="0 0 511.06 87.82">
  <defs>
    <style>
      .b {
        fill: #4a6cf7;
        stroke-width: 0px;
      }
    </style>
  </defs>
  <path class="b" d="m41.71,34.11c-3.32-1.43-6.83-2.44-10.3-3.49-4.41-1.33-8.95-2.26-13.27-3.82-4.82-1.74-6.66-4.57-6.44-8.66.21-4.09,2.6-7.41,7.24-8.42,3.73-.81,7.84-1.24,11.53-.52,4.76.93,9.26,3.18,14.22,4.98,1.23-1.66,2.84-3.86,4.56-6.19C38.15.05,26.35-2.31,13.62,2.44,7,4.91,2.83,9.83,2.26,17.17c-.61,7.96,3.04,13.58,10.2,16.68,4.12,1.78,8.55,2.85,12.84,4.23,4.03,1.3,8.28,2.15,12.06,3.99,5.21,2.53,5.85,9.41,1.35,13.1-1.84,1.51-4.28,2.59-6.61,3.13-6.84,1.56-13.43.23-19.62-2.87-2.81-1.41-5.38-3.28-8.23-5.05-1.4,2.22-2.8,4.45-4.26,6.77,8.12,7.9,20.8,11.77,31.97,10,5.09-.81,9.71-2.53,13.7-5.96,6.99-6.01,8.71-21.62-3.96-27.08Z"/>
  <path class="b" d="m137.64,15.44c-7.93-2.02-15.31-.67-21.8,4.56-.64.52-1.3,1-2.47,1.81v-6.37c-2.04,0-3.98.13-5.89-.03-2.19-.19-2.86.56-2.85,2.8.1,15.27.05,30.55.06,45.82,0,.77.09,1.55.15,2.13h8.73c0-1,0-1.96,0-2.92.03-8.17-.12-16.34.13-24.5.32-10.25,9.31-17.31,19.35-15.5,6.09,1.1,9.9,6.12,9.98,13.53.1,8.88.03,17.76-.35,26.64v3.29h9.01c.12-.49.27-.65.27-.8,0-10.65.32-21.32-.15-31.96-.43-9.64-5.87-16.38-14.18-18.49Z"/>
  <path class="b" d="m94.52,15.41c-1.77-.11-2.65.49-3.36,2.18-4.82,11.53-9.77,23-14.69,34.49-.33.78-.72,1.53-1.27,2.69-.62-1.35-1.08-2.27-1.48-3.22-4.8-11.25-9.58-22.51-14.43-33.74-.38-.88-1.15-2.17-1.84-2.23-2.79-.26-5.61-.11-8.8-.11.57,1.37.95,2.34,1.37,3.3,6.52,14.95,13.01,29.91,19.61,44.82.76,1.71.71,3.06-.04,4.73-2.27,5-4.36,10.08-6.5,15.14-.57,1.34-1.09,2.69-1.73,4.29,2.72,0,5.03-.13,7.32.04,1.82.14,2.65-.56,3.34-2.19,8.98-21.22,18.04-42.41,27.07-63.61.86-2.01,1.66-4.05,2.68-6.56-2.71,0-4.99.11-7.25-.03Z"/>
  <path class="b" d="m189.49,16.13c-8.83-2.52-17.4-1.65-25.44,2.96-1.56.89-2.94,2.09-4.48,3.21,1.72,2.44,3.18,4.5,4.7,6.65,5.43-4.39,11.3-6.42,18.02-5.68,7.36.81,10.82,4.64,10.89,12.48-1.97-.14-3.73-.38-5.48-.36-5.66.05-11.41-.4-16.96.44-8.08,1.21-13.03,7.22-13.28,14.7-.28,8.28,3.83,14.47,11.56,16.28,3.53.83,7.39.76,11.04.41,5.07-.48,9.18-3.35,13.14-7.07.11,2.45.2,4.44.3,6.55h8.36c.11-.38.25-.63.25-.87,0-11.01.2-22.02-.06-33.03-.19-8.24-5.02-14.5-12.57-16.66Zm-19.09,41.7c-2.86-1.35-4.3-3.67-4.38-6.75-.08-3.11,1.22-5.75,4.19-6.78,2.8-.97,5.83-1.67,8.78-1.73,4.67-.1,9.35.43,14.19.71-.23,11.9-12.46,19.42-22.78,14.54Z"/>
  <rect class="b" x="430.56" y=".06" width="9.6" height="9.6" rx="4.24" ry="4.24"/>
  <path class="b" d="m219.58,21.9c-.1-2.22-.19-4.27-.28-6.38h-8.38v71.97h8.53v-27.55c12.95,12.09,29.79,7.74,36.77-.71,8.21-9.95,8.04-27.05-.55-36.88-7.56-8.64-23.86-11.88-36.08-.45Zm17.63,37.08c-10.42-.03-17.56-7.3-17.56-17.89,0-10.6,7.36-18.14,17.74-18.17,10.09-.02,17.1,7.5,17.09,18.34-.01,10.7-6.87,17.74-17.26,17.72Z"/>
  <path class="b" d="m479.13,15.06c-8.83-2.52-17.4-1.65-25.44,2.96-1.56.89-2.94,2.09-4.48,3.21,1.72,2.44,3.18,4.5,4.7,6.65,5.43-4.39,11.3-6.42,18.02-5.68,7.36.81,10.82,4.64,10.89,12.48-1.97-.14-3.73-.38-5.48-.36-5.66.05-11.41-.4-16.96.44-8.08,1.21-13.03,7.22-13.28,14.7-.28,8.28,3.83,14.47,11.56,16.28,3.53.83,7.39.76,11.04.41,5.07-.48,9.18-3.35,13.14-7.07.11,2.45.2,4.44.3,6.55h8.36c.11-.38.25-.63.25-.87,0-11.01.2-22.02-.06-33.03-.19-8.24-5.02-14.5-12.57-16.66Zm-19.09,41.69c-2.86-1.35-4.3-3.67-4.38-6.75-.08-3.11,1.22-5.75,4.19-6.78,2.8-.97,5.83-1.67,8.78-1.73,4.67-.1,9.35.43,14.19.71-.23,11.9-12.46,19.42-22.78,14.54Z"/>
  <rect class="b" x="502.53" y=".06" width="8.53" height="65.57"/>
  <rect class="b" x="431.09" y="16.58" width="8.53" height="49.58"/>
  <path class="b" d="m306.81,34.11c-3.32-1.43-6.83-2.44-10.3-3.49-4.41-1.33-8.95-2.26-13.27-3.82-4.82-1.74-6.66-4.57-6.44-8.66.21-4.09,2.6-7.41,7.24-8.42,3.73-.81,7.84-1.24,11.53-.52,4.76.93,9.26,3.18,14.22,4.98,1.23-1.66,2.84-3.86,4.56-6.19-11.09-7.94-22.9-10.31-35.62-5.56-6.62,2.47-10.79,7.39-11.36,14.73-.61,7.96,3.04,13.58,10.2,16.68,4.12,1.78,8.55,2.85,12.84,4.23,4.03,1.3,8.28,2.15,12.06,3.99,5.21,2.53,5.85,9.41,1.35,13.1-1.84,1.51-4.28,2.59-6.61,3.13-6.84,1.56-13.43.23-19.62-2.87-2.81-1.41-5.38-3.28-8.23-5.05-1.4,2.22-2.8,4.45-4.26,6.77,8.12,7.9,20.8,11.77,31.97,10,5.09-.81,9.71-2.53,13.7-5.96,6.99-6.01,8.71-21.62-3.96-27.08Z"/>
  <path class="b" d="m389.22,27.52c1.59-1.42,3.48-2.45,5.5-3.14,8.11-2.76,15.57-1.65,21.8,4.99,1.98-1.76,3.89-3.45,5.92-5.25-4.45-5.31-10.09-8.08-16.72-9.12-10.66-1.67-21.58,3.08-26.99,11.8-2.56,4.12-3.85,9.16-3.91,14.22.05,5.05,1.35,10.08,3.91,14.21,5.41,8.72,16.34,13.47,26.99,11.8,6.63-1.04,12.28-3.8,16.72-9.12-2.03-1.8-3.94-3.49-5.92-5.25-6.24,6.64-13.69,7.76-21.8,4.99-2.66-.9-5.3-2.49-7.02-4.74-1.8-2.36-3.06-5.13-3.65-8.05-1.18-5.85.33-12.64,4.66-16.9.17-.16.33-.32.51-.47Z"/>
  <path class="b" d="m349.95,15.07c-6.88-1.33-14.43.07-20.2,4.13-1.33.94-2.56,2.01-3.65,3.23-8.76,9.82-8.94,26.91-.57,36.85,4.04,4.8,11.32,8.25,19.28,8.15,7.96.1,15.24-3.35,19.28-8.15,8.37-9.95,8.2-27.03-.57-36.85-3.48-3.9-8.49-6.36-13.59-7.35Zm6.53,39.27c-3.06,3.02-7.38,4.55-11.66,4.56-.91,0-1.81-.06-2.7-.2-4.6-.69-8.76-3.23-11.22-7.2-1.9-3.06-2.68-6.68-2.69-10.25,0-4.66,1.35-9.41,4.49-12.94,3.35-3.78,8.47-5.72,13.49-5.31.95.08,1.89.24,2.81.48,5.11,1.35,9.18,5.12,11.07,10.03.95,2.46,1.36,5.11,1.36,7.75,0,4.79-1.48,9.67-4.95,13.09Z"/>
</svg>