<?xml version="1.0" encoding="UTF-8"?>
<svg id="a" data-name="Layer 1" xmlns="http://www.w3.org/2000/svg" viewBox="0 0 701.84 100.13">
  <defs>
    <style>
      .b {
        fill: #4a6cf7;
        stroke-width: 0px;
      }
    </style>
  </defs>
  <path class="b" d="m210.73,43.93c-3.47-1.5-7.15-2.55-10.78-3.65-4.61-1.39-9.36-2.37-13.88-4-5.04-1.82-6.97-4.78-6.74-9.06.22-4.28,2.72-7.75,7.57-8.81,3.9-.85,8.21-1.3,12.06-.55,4.98.97,9.69,3.32,14.88,5.21,1.28-1.74,2.98-4.04,4.78-6.48-11.6-8.31-23.96-10.79-37.27-5.81-6.93,2.59-11.29,7.73-11.89,15.41-.64,8.33,3.18,14.2,10.67,17.45,4.31,1.87,8.94,2.98,13.43,4.43,4.22,1.36,8.67,2.25,12.62,4.17,5.45,2.65,6.12,9.85,1.42,13.71-1.92,1.58-4.47,2.71-6.92,3.27-7.16,1.64-14.05.24-20.52-3-2.94-1.47-5.63-3.44-8.61-5.28-1.46,2.32-2.93,4.66-4.45,7.09,8.5,8.26,21.76,12.32,33.45,10.46,5.33-.85,10.16-2.64,14.33-6.23,7.31-6.29,9.12-22.62-4.14-28.34Z"/>
  <path class="b" d="m311.11,24.4c-8.29-2.11-16.02-.7-22.82,4.77-.67.54-1.36,1.05-2.58,1.9v-6.67c-2.13,0-4.16.14-6.17-.04-2.3-.2-2.99.59-2.98,2.93.1,15.98.05,31.96.06,47.94,0,.81.09,1.62.15,2.23h9.14c0-1.05,0-2.05,0-3.06.03-8.55-.13-17.1.14-25.64.34-10.72,9.74-18.11,20.25-16.22,6.38,1.15,10.36,6.41,10.44,14.15.1,9.29.03,18.58-.36,27.87v3.45h9.43c.13-.52.29-.68.29-.84,0-11.15.34-22.31-.16-33.44-.45-10.08-6.14-17.14-14.84-19.35Z"/>
  <path class="b" d="m266,24.36c-1.85-.12-2.78.52-3.51,2.28-5.05,12.06-10.22,24.07-15.37,36.09-.35.81-.75,1.6-1.33,2.82-.65-1.41-1.13-2.38-1.55-3.37-5.02-11.77-10.02-23.55-15.09-35.3-.4-.92-1.21-2.27-1.93-2.34-2.92-.27-5.87-.11-9.21-.11.59,1.43,1,2.45,1.43,3.45,6.82,15.64,13.62,31.3,20.52,46.9.79,1.79.75,3.2-.05,4.95-2.37,5.23-4.56,10.55-6.8,15.84-.59,1.4-1.14,2.82-1.81,4.49,2.84,0,5.27-.14,7.66.04,1.9.14,2.77-.58,3.49-2.3,9.4-22.2,18.88-44.38,28.33-66.56.9-2.11,1.73-4.24,2.8-6.86-2.83,0-5.22.11-7.59-.04Z"/>
  <path class="b" d="m365.36,25.11c-9.24-2.64-18.2-1.72-26.62,3.1-1.63.93-3.07,2.19-4.69,3.35,1.8,2.55,3.32,4.71,4.91,6.96,5.68-4.59,11.83-6.72,18.86-5.95,7.71.85,11.33,4.86,11.39,13.06-2.06-.15-3.9-.4-5.73-.38-5.92.05-11.94-.41-17.75.46-8.45,1.27-13.63,7.56-13.89,15.38-.29,8.66,4.01,15.14,12.1,17.04,3.69.86,7.74.79,11.55.43,5.3-.5,9.6-3.51,13.75-7.4.12,2.57.21,4.65.31,6.85h8.75c.12-.4.26-.66.26-.92.01-11.52.21-23.04-.06-34.56-.2-8.62-5.25-15.18-13.15-17.44Zm-19.98,43.63c-2.99-1.42-4.5-3.84-4.58-7.06-.08-3.25,1.28-6.01,4.38-7.09,2.93-1.02,6.1-1.74,9.19-1.81,4.88-.1,9.78.45,14.84.74-.24,12.45-13.04,20.32-23.83,15.22Z"/>
  <rect class="b" x="617.61" y="8.3" width="10.04" height="10.04" rx="4.43" ry="4.43"/>
  <path class="b" d="m396.85,31.15c-.1-2.33-.2-4.47-.29-6.68h-8.77v75.3h8.92v-28.82c13.55,12.65,31.17,8.1,38.47-.74,8.59-10.41,8.41-28.3-.58-38.58-7.91-9.04-24.97-12.43-37.75-.47Zm18.45,38.8c-10.91-.03-18.38-7.64-18.38-18.72,0-11.1,7.7-18.98,18.56-19.01,10.55-.02,17.89,7.85,17.88,19.19-.01,11.2-7.19,18.57-18.06,18.54Z"/>
  <path class="b" d="m668.43,24c-9.24-2.64-18.2-1.72-26.62,3.1-1.63.93-3.07,2.19-4.69,3.36,1.8,2.55,3.32,4.71,4.91,6.96,5.68-4.59,11.83-6.72,18.86-5.95,7.71.85,11.33,4.86,11.39,13.06-2.06-.15-3.9-.4-5.73-.38-5.92.05-11.94-.41-17.75.46-8.45,1.27-13.63,7.56-13.89,15.38-.29,8.66,4.01,15.14,12.1,17.04,3.69.86,7.74.79,11.55.43,5.3-.5,9.6-3.51,13.75-7.4.12,2.57.21,4.65.31,6.85h8.75c.12-.4.26-.66.26-.92.01-11.52.21-23.04-.06-34.56-.2-8.62-5.25-15.18-13.15-17.44Zm-19.98,43.62c-2.99-1.42-4.5-3.84-4.58-7.06-.08-3.25,1.28-6.01,4.38-7.09,2.93-1.02,6.1-1.74,9.19-1.81,4.88-.1,9.78.45,14.84.74-.24,12.45-13.04,20.32-23.83,15.22Z"/>
  <rect class="b" x="692.91" y="8.3" width="8.92" height="68.61"/>
  <rect class="b" x="618.17" y="25.59" width="8.92" height="51.88"/>
  <path class="b" d="m488.12,43.93c-3.47-1.5-7.15-2.55-10.78-3.65-4.61-1.39-9.36-2.37-13.88-4-5.04-1.82-6.97-4.78-6.74-9.06.22-4.28,2.72-7.75,7.57-8.81,3.9-.85,8.21-1.3,12.06-.55,4.98.97,9.69,3.32,14.88,5.21,1.28-1.74,2.98-4.04,4.78-6.48-11.6-8.31-23.96-10.79-37.27-5.81-6.93,2.59-11.29,7.73-11.89,15.41-.64,8.33,3.18,14.2,10.67,17.45,4.31,1.87,8.94,2.98,13.43,4.43,4.22,1.36,8.67,2.25,12.62,4.17,5.45,2.65,6.12,9.85,1.42,13.71-1.92,1.58-4.47,2.71-6.92,3.27-7.16,1.64-14.05.24-20.52-3-2.94-1.47-5.63-3.44-8.61-5.28-1.46,2.32-2.93,4.66-4.45,7.09,8.5,8.26,21.76,12.32,33.45,10.46,5.33-.85,10.16-2.64,14.33-6.23,7.31-6.29,9.12-22.62-4.14-28.34Z"/>
  <path class="b" d="m574.36,37.04c1.66-1.48,3.65-2.56,5.75-3.28,8.49-2.89,16.29-1.72,22.81,5.23,2.08-1.84,4.07-3.61,6.2-5.49-4.65-5.56-10.56-8.45-17.5-9.54-11.15-1.75-22.58,3.23-28.25,12.35-2.68,4.32-4.03,9.58-4.09,14.88.06,5.29,1.41,10.55,4.09,14.87,5.66,9.12,17.1,14.1,28.25,12.35,6.94-1.09,12.85-3.98,17.5-9.54-2.13-1.88-4.12-3.65-6.2-5.49-6.53,6.95-14.32,8.12-22.81,5.23-2.78-.95-5.55-2.6-7.34-4.96-1.88-2.47-3.2-5.37-3.81-8.42-1.23-6.12.34-13.23,4.88-17.69.17-.17.35-.34.53-.5Z"/>
  <path class="b" d="m533.26,24.01c-7.2-1.4-15.1.08-21.13,4.32-1.39.98-2.68,2.11-3.81,3.38-9.17,10.28-9.35,28.15-.59,38.56,4.22,5.02,11.85,8.64,20.17,8.53,8.33.11,15.95-3.51,20.17-8.53,8.76-10.41,8.58-28.28-.59-38.56-3.64-4.08-8.88-6.66-14.22-7.69Zm6.83,41.09c-3.2,3.16-7.72,4.76-12.2,4.77-.95,0-1.89-.07-2.82-.21-4.81-.72-9.17-3.38-11.74-7.54-1.98-3.2-2.81-6.99-2.81-10.73,0-4.88,1.42-9.84,4.7-13.54,3.51-3.96,8.86-5.98,14.11-5.56.99.08,1.98.25,2.94.5,5.35,1.41,9.6,5.36,11.58,10.49.99,2.58,1.43,5.35,1.42,8.11,0,5.01-1.55,10.12-5.18,13.7Z"/>
  <path class="b" d="m155.41,18.11c-.3-.1-.63-.03-.87.18-3.15,2.79-6.21,5.36-9.27,7.72-8.28,6.26-16.98,12-27.11,13.58-4.55.66-9,.03-13.23-1.63-6.85-2.69-13.04-6.97-19.04-11.62-4.28-3.35-8.38-6.92-12.38-10.61C65.19,7.87,54.71,1.7,42.96.32,30.13-1.31,16.36,3.37,8.02,13.41,2.93,19.36-.15,27.18,0,35c.21,11.91,7.57,22.75,17.37,29.19,0,0,.27.02.53.05.27.02.53.05.53.05.73-.26,2.22-.82,2.94-1.09,3.75-1.46,7.93-3.21,11.57-4.75,3-1.28,7.22-3.14,9.92-4.13,1.81-.66,3.36-1.15,4.59-1.3.5-.07,1.09-.09,1.55.04.46.1.88.45.91.94.04,1.25-1.03,2.34-1.94,3.16-.18.15-.36.29-.54.43-.19.14-.38.27-.58.4-.2.13-.4.25-.6.37-.21.12-.42.23-.63.34-.22.11-.43.21-.65.31-.22.1-.45.19-.67.28-.23.09-.46.17-.69.25-.23.08-.47.15-.71.22-.24.07-.48.13-.72.19-.24.06-.49.11-.73.16-.24.05-.49.09-.74.13-.25.04-.49.07-.74.1-.25.03-.5.05-.75.06-.25.02-.5.03-.75.03-.25,0-.5,0-.74,0-.25,0-.49-.02-.74-.03-.24-.02-.49-.04-.73-.07-.24-.03-.48-.06-.72-.1-.24-.04-.47-.08-.71-.14-.23-.05-.46-.11-.69-.17-.3-.08-.59-.17-.87-.3-.2-.09-.4-.21-.59-.31-.2-.1-.62-.36-.62-.26-.02.04.1.12.17.16.13.07.27.15.41.2.14.06.27.12.41.18.13.07.27.14.4.22.07.04.13.08.19.12.05.03.1.06.14.1l.15.12c.2.16.41.32.62.48.01,0,.02.02.03.02.22.17.43.33.65.49.22.16.43.33.65.49.22.16.44.33.65.49.22.16.44.32.66.49.22.16.44.32.66.48.22.16.44.32.67.48.22.16.45.32.67.48.22.16.45.32.67.47.22.16.45.31.68.47.23.16.45.31.68.47.23.16.45.31.68.46.23.15.46.31.69.46.23.15.46.3.69.46.23.15.46.3.69.45.23.15.46.3.7.45.23.15.47.3.7.45.23.15.47.29.7.44.23.15.47.29.71.44.24.15.47.29.71.43.24.14.47.29.71.43.24.14.48.28.71.42.24.14.48.28.72.42.24.14.48.28.72.42.24.14.48.28.72.41s.48.27.73.41c.24.13.49.27.73.4.24.13.49.27.73.4.24.13.49.26.73.39.25.13.49.26.74.39.25.13.49.26.74.38.25.13.49.25.74.38s.5.25.74.37c.25.12.5.25.75.37s.5.24.75.36c.25.12.5.24.75.36.25.12.5.23.75.35.25.12.5.23.76.34.25.11.51.23.76.34.25.11.51.22.76.33.25.11.51.22.76.33.26.11.51.22.77.32.26.11.51.21.77.32.26.1.51.21.77.31.26.1.51.2.77.3.26.1.52.2.77.3.26.1.52.19.78.29.26.1.52.19.78.28.26.09.52.19.78.28.26.09.52.18.78.27.26.09.52.18.78.26.26.09.52.17.79.26.26.08.52.17.79.25.26.08.53.16.79.24.26.08.53.16.79.24.26.08.53.15.79.23.26.08.53.15.79.22.26.07.53.14.8.21.27.07.53.14.8.21.27.07.53.13.8.2.27.07.53.13.8.19.27.06.53.12.8.18.27.06.53.12.8.18.27.06.54.11.8.17.27.05.54.11.81.16.27.05.54.1.81.15.27.05.54.1.81.14.27.05.54.09.81.14.27.04.54.09.81.13.27.04.54.08.81.12.27.04.54.08.81.11s.54.07.81.1c.27.03.54.06.81.09s.54.06.82.08c.27.03.54.05.82.08.27.02.54.05.82.07.27.02.54.04.82.06.27.02.55.03.82.05.27.01.55.03.82.04.27.01.55.02.82.03.27,0,.55.02.82.02.27,0,.55,0,.82.01.27,0,.55,0,.82,0,.27,0,.55,0,.82,0,.27,0,.55,0,.82-.02.27,0,.55-.02.82-.03.27-.01.55-.02.82-.04.27-.01.55-.03.82-.05.27-.02.55-.04.82-.06.27-.02.55-.04.82-.07.27-.02.55-.05.82-.08.28-.03.55-.06.82-.09.28-.03.55-.06.82-.1.28-.03.55-.07.82-.11.28-.04.55-.08.82-.12.28-.04.55-.08.82-.13.28-.04.55-.09.82-.14.28-.05.55-.1.82-.15.28-.05.55-.11.82-.16.28-.06.55-.11.82-.17.28-.06.55-.12.82-.18.28-.06.55-.13.82-.19.28-.07.55-.14.82-.21.2-.05.41-.11.61-.16,11.69-3.15,22.32-10.1,29.7-19.64,7.03-8.91,11.31-20.04,12.61-31.18.48-4.3.61-8.59.03-12.89-.05-.34-.29-.62-.61-.73Z"/>
</svg>